<svg width="21" height="20" viewBox="0 0 21 20" fill="none" xmlns="http://www.w3.org/2000/svg">
<g id="Frame 512424">
<path id="Vector" d="M19.6667 18.3333H4.66667C4.00363 18.3333 3.36774 18.0699 2.8989 17.6011C2.43006 17.1323 2.16667 16.4964 2.16667 15.8333V0.833333C2.16667 0.61232 2.07887 0.400358 1.92259 0.244078C1.76631 0.0877974 1.55435 0 1.33333 0C1.11232 0 0.900358 0.0877974 0.744078 0.244078C0.587797 0.400358 0.5 0.61232 0.5 0.833333L0.5 15.8333C0.501323 16.938 0.940735 17.997 1.72185 18.7782C2.50296 19.5593 3.562 19.9987 4.66667 20H19.6667C19.8877 20 20.0996 19.9122 20.2559 19.7559C20.4122 19.5996 20.5 19.3877 20.5 19.1667C20.5 18.9457 20.4122 18.7337 20.2559 18.5774C20.0996 18.4211 19.8877 18.3333 19.6667 18.3333Z" fill="#FEFEFE"/>
<path id="Vector_2" d="M5.49996 16.6667C5.72097 16.6667 5.93293 16.5789 6.08921 16.4226C6.2455 16.2663 6.33329 16.0544 6.33329 15.8334V10C6.33329 9.77901 6.2455 9.56705 6.08921 9.41076C5.93293 9.25448 5.72097 9.16669 5.49996 9.16669C5.27895 9.16669 5.06698 9.25448 4.9107 9.41076C4.75442 9.56705 4.66663 9.77901 4.66663 10V15.8334C4.66663 16.0544 4.75442 16.2663 4.9107 16.4226C5.06698 16.5789 5.27895 16.6667 5.49996 16.6667Z" fill="#FEFEFE"/>
<path id="Vector_3" d="M8.83337 8.33333V15.8333C8.83337 16.0543 8.92117 16.2663 9.07745 16.4226C9.23373 16.5789 9.44569 16.6667 9.66671 16.6667C9.88772 16.6667 10.0997 16.5789 10.256 16.4226C10.4122 16.2663 10.5 16.0543 10.5 15.8333V8.33333C10.5 8.11232 10.4122 7.90036 10.256 7.74408C10.0997 7.5878 9.88772 7.5 9.66671 7.5C9.44569 7.5 9.23373 7.5878 9.07745 7.74408C8.92117 7.90036 8.83337 8.11232 8.83337 8.33333Z" fill="#FEFEFE"/>
<path id="Vector_4" d="M13 10.8333V15.8333C13 16.0543 13.0878 16.2663 13.2441 16.4226C13.4004 16.5789 13.6123 16.6667 13.8333 16.6667C14.0543 16.6667 14.2663 16.5789 14.4226 16.4226C14.5789 16.2663 14.6667 16.0543 14.6667 15.8333V10.8333C14.6667 10.6123 14.5789 10.4004 14.4226 10.2441C14.2663 10.0878 14.0543 10 13.8333 10C13.6123 10 13.4004 10.0878 13.2441 10.2441C13.0878 10.4004 13 10.6123 13 10.8333Z" fill="#FEFEFE"/>
<path id="Vector_5" d="M17.1666 7.50002V15.8334C17.1666 16.0544 17.2544 16.2663 17.4107 16.4226C17.567 16.5789 17.7789 16.6667 18 16.6667C18.221 16.6667 18.4329 16.5789 18.5892 16.4226C18.7455 16.2663 18.8333 16.0544 18.8333 15.8334V7.50002C18.8333 7.27901 18.7455 7.06705 18.5892 6.91076C18.4329 6.75448 18.221 6.66669 18 6.66669C17.7789 6.66669 17.567 6.75448 17.4107 6.91076C17.2544 7.06705 17.1666 7.27901 17.1666 7.50002Z" fill="#FEFEFE"/>
<path id="Vector_6" d="M5.50003 7.50001C5.72102 7.49997 5.93295 7.41214 6.08919 7.25585L9.07753 4.26751C9.23636 4.1162 9.44732 4.0318 9.66669 4.0318C9.88606 4.0318 10.097 4.1162 10.2559 4.26751L12.0659 6.07751C12.5347 6.54619 13.1704 6.80948 13.8334 6.80948C14.4963 6.80948 15.132 6.54619 15.6009 6.07751L20.2559 1.42251C20.4077 1.26535 20.4917 1.05484 20.4898 0.836346C20.4879 0.617849 20.4002 0.408838 20.2457 0.254332C20.0912 0.0998249 19.8822 0.0121841 19.6637 0.0102854C19.4452 0.00838673 19.2347 0.0923821 19.0775 0.24418L14.4225 4.89835C14.2663 5.05457 14.0543 5.14234 13.8334 5.14234C13.6124 5.14234 13.4005 5.05457 13.2442 4.89835L11.4342 3.08918C10.9654 2.6205 10.3296 2.35721 9.66669 2.35721C9.00378 2.35721 8.36801 2.6205 7.89919 3.08918L4.91086 6.07751C4.79435 6.19406 4.71501 6.34253 4.68287 6.50415C4.65073 6.66578 4.66724 6.83331 4.73029 6.98556C4.79335 7.13781 4.90014 7.26794 5.03714 7.35952C5.17415 7.45109 5.33523 7.49998 5.50003 7.50001Z" fill="#FEFEFE"/>
</g>
</svg>
