<svg width="21" height="22" viewBox="0 0 21 22" fill="none" xmlns="http://www.w3.org/2000/svg">
<g id="calendar">
<path id="Vector" d="M6.28945 6C5.71401 6 5.23682 5.54667 5.23682 5V1C5.23682 0.453333 5.71401 0 6.28945 0C6.86489 0 7.34208 0.453333 7.34208 1V5C7.34208 5.54667 6.86489 6 6.28945 6Z" fill="#4B7FD6"/>
<path id="Vector_2" d="M14.7105 6C14.135 6 13.6578 5.54667 13.6578 5V1C13.6578 0.453333 14.135 0 14.7105 0C15.2859 0 15.7631 0.453333 15.7631 1V5C15.7631 5.54667 15.2859 6 14.7105 6Z" fill="#4B7FD6"/>
<path id="Vector_3" d="M10.5 14.09C11.0473 14.09 11.4473 13.78 11.4473 13.29C11.4473 12.79 11.0473 12.5 10.5 12.5C9.95261 12.5 9.55261 12.79 9.55261 13.29C9.55261 13.78 9.95261 14.09 10.5 14.09Z" fill="#4B7FD6"/>
<path id="Vector_4" d="M10.5 17C11.1628 17 11.7 16.5836 11.7 16.07C11.7 15.5564 11.1628 15.14 10.5 15.14C9.83731 15.14 9.30005 15.5564 9.30005 16.07C9.30005 16.5836 9.83731 17 10.5 17Z" fill="#4B7FD6"/>
<path id="Vector_5" d="M18.4684 4.5C17.7737 4.01 16.7737 4.48 16.7737 5.31V5.41C16.7737 6.58 15.8895 7.66 14.6579 7.78C13.2368 7.92 12.0368 6.86 12.0368 5.54V4.5C12.0368 3.95 11.5632 3.5 10.9842 3.5H10.0158C9.43684 3.5 8.96316 3.95 8.96316 4.5V5.54C8.96316 6.33 8.53158 7.03 7.87895 7.42C7.78421 7.48 7.67895 7.53 7.57368 7.58C7.47895 7.63 7.37368 7.67 7.25789 7.7C7.13158 7.74 6.99474 7.77 6.84737 7.78C6.67895 7.8 6.51053 7.8 6.34211 7.78C6.19474 7.77 6.05789 7.74 5.93158 7.7C5.82632 7.67 5.72105 7.63 5.61579 7.58C5.51053 7.53 5.40526 7.48 5.31053 7.42C4.64737 6.98 4.22632 6.22 4.22632 5.41V5.31C4.22632 4.54 3.36316 4.08 2.67895 4.41C2.66842 4.42 2.65789 4.42 2.64737 4.43C2.60526 4.45 2.57368 4.47 2.53158 4.5C2.5 4.53 2.45789 4.55 2.42632 4.58C2.13158 4.8 1.86842 5.05 1.64737 5.32C1.53158 5.44 1.43684 5.57 1.35263 5.7C1.34211 5.71 1.33158 5.72 1.32105 5.74C1.22632 5.87 1.14211 6.02 1.06842 6.16C1.04737 6.18 1.03684 6.19 1.03684 6.21C0.973684 6.33 0.910526 6.45 0.868421 6.58C0.836842 6.63 0.826316 6.67 0.805263 6.72C0.742105 6.87 0.7 7.02 0.657895 7.17C0.61579 7.31 0.58421 7.46 0.563158 7.61C0.542105 7.72 0.531579 7.83 0.521053 7.95C0.510526 8.09 0.5 8.23 0.5 8.37V17.13C0.5 19.82 2.79474 22 5.62632 22H15.3737C18.2053 22 20.5 19.82 20.5 17.13V8.37C20.5 6.78 19.7 5.39 18.4684 4.5ZM10.5 18.25C8.86842 18.25 7.86842 17.48 7.86842 16.24C7.86842 15.56 8.23684 14.97 8.87895 14.62C8.41579 14.31 8.11053 13.85 8.11053 13.22C8.11053 11.92 9.20526 11.25 10.5 11.25C11.7947 11.25 12.8789 11.92 12.8789 13.22C12.8789 13.85 12.5842 14.31 12.1105 14.62C12.7632 14.97 13.1316 15.56 13.1316 16.24C13.1316 17.48 12.1211 18.25 10.5 18.25Z" fill="#4B7FD6"/>
</g>
</svg>
